<svg xmlns="http://www.w3.org/2000/svg" viewBox="0 0 80 64" fill="none" aria-hidden="true">
  <ellipse cx="40" cy="38" rx="22" ry="14" fill="#FF5C4D"/>
  <ellipse cx="40" cy="38" rx="18" ry="11" fill="#FF7A6E"/>
  <circle cx="28" cy="24" r="7" fill="#FF5C4D"/>
  <circle cx="52" cy="24" r="7" fill="#FF5C4D"/>
  <path d="M10 34c-5-3-8-8-5-11 3-3 8 0 10 5M70 34c5-3 8-8 5-11-3-3-8 0-10 5" stroke="#E84A3A" stroke-width="3.5" stroke-linecap="round"/>
  <path d="M22 50l-8 12M58 50l8 12M32 50l-3 14M48 50l3 14" stroke="#E84A3A" stroke-width="3" stroke-linecap="round"/>
  <circle cx="33" cy="36" r="3" fill="#fff"/>
  <circle cx="47" cy="36" r="3" fill="#fff"/>
  <circle cx="34" cy="36" r="1.5" fill="#1C2B33"/>
  <circle cx="48" cy="36" r="1.5" fill="#1C2B33"/>
  <path d="M36 42q4 3 8 0" stroke="#E84A3A" stroke-width="2" stroke-linecap="round" fill="none"/>
</svg>
